<?xml version="1.0" encoding="UTF-8"?>
<!-- Generated by jsxcad -->
<!DOCTYPE svg PUBLIC "-//W3C//DTD SVG 1.1 Tiny//EN" "http://www.w3.org/Graphics/SVG/1.1/DTD/svg11-tiny.dtd">
<svg baseProfile="tiny" height="7.983897175980962mm" width="7.991944532330521mm" viewBox="0 0 7.991944532330521 7.983897175980962" version="1.1" stroke="black" stroke-width=".1" fill="none" xmlns="http://www.w3.org/2000/svg">
<path fill="#ff0000" stroke="#ff0000" d="M2.59047 7.73689 L1.94438 7.42574 L1.36422 7.00423 L0.86865 6.48591 L0.47359 5.88742 L0.19175 5.22802 L0.03217 4.52888 L0 3.81249 L0.09626 3.10186 L0.31786 2.41985 L0.65768 1.78836 L1.10479 1.2277 L1.64483 0.75588 L2.26044 0.38807 L2.93182 0.1361 L3.63742 0.00805 L4.35453 0.00805 L5.06012 0.1361 L5.73151 0.38807 L6.34711 0.75588 L6.88715 1.2277 L7.33427 1.78836 L7.67408 2.41985 L7.89568 3.10186 L7.99194 3.81249 L7.95977 4.52888 L7.8002 5.22802 L7.51835 5.88742 L7.1233 6.48591 L6.62773 7.00423 L6.04757 7.42574 L5.40147 7.73689 L4.7102 7.92767 L3.99597 7.99195 L3.28174 7.92767 z"/>
<path fill="#ff0000" stroke="#ff0000" d="M4.710199725778314 7.927666953147528 L4.710199725778314 7.927666953147528 L3.995969892147086 7.991948801655983 L3.995969892147086 7.991948801655983 z"/>
<path fill="#ff0000" stroke="#ff0000" d="M3.281740310639894 7.927666548508096 L3.281740310639894 7.927666548508096 L3.995970144271121 7.991948397016551 L3.995970144271121 7.991948397016551 z"/>
<path fill="#ff0000" stroke="#ff0000" d="M7.123297956374089 6.485908046093564 L7.123297956374089 6.485908046093564 L6.627730745237644 7.004230712520144 L6.627730745237644 7.004230712520144 z"/>
<path fill="#ff0000" stroke="#ff0000" d="M6.047571573466905 7.425742165691401 L6.047571573466905 7.425742165691401 L6.627731139286975 7.004231568093995 L6.627731139286975 7.004231568093995 z"/>
<path fill="#ff0000" stroke="#ff0000" d="M5.4014695398942285 7.736889044580521 L5.4014695398942285 7.736889044580521 L6.047571353269656 7.425742810093396 L6.047571353269656 7.425742810093396 z"/>
<path fill="#ff0000" stroke="#ff0000" d="M5.401469615779314 7.736888607807615 L5.401469615779314 7.736888607807615 L4.710199204930984 7.927667119132123 L4.710199204930984 7.927667119132123 z"/>
<path fill="#ff0000" stroke="#ff0000" d="M7.800197668881267 5.228019467937361 L7.800197668881267 5.228019467937361 L7.959771606438997 4.528880366659218 L7.959771606438997 4.528880366659218 z"/>
<path fill="#ff0000" stroke="#ff0000" d="M7.959771384602599 4.528880062182574 L7.959771384602599 4.528880062182574 L7.9919444903363495 3.812490201661238 L7.9919444903363495 3.812490201661238 z"/>
<path fill="#ff0000" stroke="#ff0000" d="M7.518354885082254 5.887422087984359 L7.518354885082254 5.887422087984359 L7.800197347877671 5.228018866428515 L7.800197347877671 5.228018866428515 z"/>
<path fill="#ff0000" stroke="#ff0000" d="M7.518354548853396 5.887423002671836 L7.518354548853396 5.887423002671836 L7.123297729933678 6.485908501542339 L7.123297729933678 6.485908501542339 z"/>
<path fill="#ff0000" stroke="#ff0000" d="M7.67408348805675 2.4198488666616598 L7.67408348805675 2.4198488666616598 L7.895682115038001 3.1018593127824943 L7.895682115038001 3.1018593127824943 z"/>
<path fill="#ff0000" stroke="#ff0000" d="M7.895683198924425 3.1018595666762434 L7.895683198924425 3.1018595666762434 L7.991944548221657 3.812489383901515 L7.991944548221657 3.812489383901515 z"/>
<path fill="#ff0000" stroke="#ff0000" d="M7.334266064377987 1.7883621178485145 L7.334266064377987 1.7883621178485145 L7.6740832447406 2.4198482539306263 L7.6740832447406 2.4198482539306263 z"/>
<path fill="#ff0000" stroke="#ff0000" d="M6.347111115355307 0.7558787233731304 L6.347111115355307 0.7558787233731304 L6.887151740090063 1.227698008306665 L6.887151740090063 1.227698008306665 z"/>
<path fill="#ff0000" stroke="#ff0000" d="M6.887152031076158 1.2276983802708128 L6.887152031076158 1.2276983802708128 L7.334266792702815 1.7883625577341549 L7.334266792702815 1.7883625577341549 z"/>
<path fill="#ff0000" stroke="#ff0000" d="M5.060120895733322 0.1360976133270986 L5.060120895733322 0.1360976133270986 L5.731508631900919 0.38807364528696514 L5.731508631900919 0.38807364528696514 z"/>
<path fill="#ff0000" stroke="#ff0000" d="M5.731507897235242 0.3880735194353916 L5.731507897235242 0.3880735194353916 L6.3471105928305445 0.7558790077687987 L6.3471105928305445 0.7558790077687987 z"/>
<path fill="#ff0000" stroke="#ff0000" d="M4.354529736043136 0.008051454522199004 L4.354529736043136 0.008051454522199004 L5.060120490342292 0.13609729799126702 L5.060120490342292 0.13609729799126702 z"/>
<path fill="#ff0000" stroke="#ff0000" d="M2.2604406930372765 0.38807184659122024 L2.2604406930372765 0.38807184659122024 L2.931819663847543 0.13609910432498248 L2.931819663847543 0.13609910432498248 z"/>
<path fill="#ff0000" stroke="#ff0000" d="M3.6374200896335367 0.00805049392149805 L3.6374200896335367 0.00805049392149805 L2.9318196541600297 0.1360980942646868 L2.9318196541600297 0.1360980942646868 z"/>
<path fill="#ff0000" stroke="#ff0000" d="M3.63742 0.00805141200952475 L3.63742 0.00805141200952475 L4.35453 0.00805141200952475 L4.35453 0.00805141200952475 z"/>
<path fill="#ff0000" stroke="#ff0000" d="M1.104790221880433 1.2277002539625903 L1.104790221880433 1.2277002539625903 L1.6448308466151895 0.7558809690290551 L1.6448308466151895 0.7558809690290551 z"/>
<path fill="#ff0000" stroke="#ff0000" d="M1.6448305994700145 0.7558810033438017 L1.6448305994700145 0.7558810033438017 L2.260440664408629 0.38807111203273525 L2.260440664408629 0.38807111203273525 z"/>
<path fill="#ff0000" stroke="#ff0000" d="M0.6576798651269858 1.7883598924423603 L0.6576798651269858 1.7883598924423603 L1.104790739358312 1.2277005896185786 L1.104790739358312 1.2277005896185786 z"/>
<path fill="#ff0000" stroke="#ff0000" d="M0.09626198449346675 3.101860644801014 L0.09626198449346675 3.101860644801014 L0.3178606114747173 2.419850198680179 L0.3178606114747173 2.419850198680179 z"/>
<path fill="#ff0000" stroke="#ff0000" d="M0.3178602698482616 2.4198501452115413 L0.3178602698482616 2.4198501452115413 L0.6576796957259673 1.7883598362631608 L0.6576796957259673 1.7883598362631608 z"/>
<path fill="#ff0000" stroke="#ff0000" d="M0.03217313860500761 4.5288798590450865 L0.03217313860500761 4.5288798590450865 L3.2871255239624796e-8 3.81248999852375 L3.2871255239624796e-8 3.81248999852375 z"/>
<path fill="#ff0000" stroke="#ff0000" d="M-9.755724952319791e-8 3.812489986784972 L-9.755724952319791e-8 3.812489986784972 L0.09626125173998216 3.1018601695597012 L0.09626125173998216 3.1018601695597012 z"/>
<path fill="#ff0000" stroke="#ff0000" d="M0.4735889471451739 5.887420450011748 L0.4735889471451739 5.887420450011748 L0.1917480290365119 5.228020842430223 L0.1917480290365119 5.228020842430223 z"/>
<path fill="#ff0000" stroke="#ff0000" d="M0.1917471341840035 5.2280206541037995 L0.1917471341840035 5.2280206541037995 L0.032172701470612804 4.528879383406961 L0.032172701470612804 4.528879383406961 z"/>
<path fill="#ff0000" stroke="#ff0000" d="M0.8686484617660971 6.485911015379308 L0.8686484617660971 6.485911015379308 L0.4735886079715378 5.8874209188699425 L0.4735886079715378 5.8874209188699425 z"/>
<path fill="#ff0000" stroke="#ff0000" d="M1.9443765374997497 7.425744765722744 L1.9443765374997497 7.425744765722744 L1.3642169716796795 7.004234168125338 L1.3642169716796795 7.004234168125338 z"/>
<path fill="#ff0000" stroke="#ff0000" d="M1.3642163982745843 7.004233443602093 L1.3642163982745843 7.004233443602093 L0.8686491871381397 6.485910777175514 L0.8686491871381397 6.485910777175514 z"/>
<path fill="#ff0000" stroke="#ff0000" d="M2.590470704999111 7.736887445493091 L2.590470704999111 7.736887445493091 L3.281741115847441 7.9276659568176 L3.281741115847441 7.9276659568176 z"/>
<path fill="#ff0000" stroke="#ff0000" d="M2.590471313340102 7.736887272821176 L2.590471313340102 7.736887272821176 L1.9443776174136842 7.425744947491463 L1.9443776174136842 7.425744947491463 z"/>
<path fill="#ff0000" stroke="#ff0000" d="M1.94438 7.42574 L2.59047 7.73689 L3.28174 7.92767 L3.99597 7.99195 L4.7102 7.92767 L5.40147 7.73689 L6.04757 7.42574 L6.62773 7.00423 L7.1233 6.48591 L7.51835 5.88742 L7.8002 5.22802 L7.95977 4.52888 L7.99194 3.81249 L7.89568 3.10186 L7.67408 2.41985 L7.33427 1.78836 L6.88715 1.2277 L6.34711 0.75588 L5.73151 0.38807 L5.06012 0.1361 L4.35453 0.00805 L3.63742 0.00805 L2.93182 0.1361 L2.26044 0.38807 L1.64483 0.75588 L1.10479 1.2277 L0.65768 1.78836 L0.31786 2.41985 L0.09626 3.10186 L0 3.81249 L0.03217 4.52888 L0.19175 5.22802 L0.47359 5.88742 L0.86865 6.48591 L1.36422 7.00423 z"/>
</svg>